<mxfile host="Electron" agent="Mozilla/5.0 (Windows NT 10.0; Win64; x64) AppleWebKit/537.36 (KHTML, like Gecko) draw.io/25.0.2 Chrome/128.0.6613.186 Electron/32.2.5 Safari/537.36" version="25.0.2">
  <diagram id="oW3MnLp_1cMdnGVnwum1" name="Page-1">
    <mxGraphModel dx="918" dy="593" grid="1" gridSize="10" guides="1" tooltips="1" connect="1" arrows="1" fold="1" page="1" pageScale="1" pageWidth="827" pageHeight="1169" math="0" shadow="0">
      <root>
        <mxCell id="0" />
        <mxCell id="1" parent="0" />
        <mxCell id="MKCzWIRwI4Zgw65z_sEB-200" value="" style="rounded=0;whiteSpace=wrap;html=1;fontSize=15;rotation=-90;dashed=1;" parent="1" vertex="1">
          <mxGeometry x="965.74" y="2219.75" width="80.06" height="150.49" as="geometry" />
        </mxCell>
        <mxCell id="MKCzWIRwI4Zgw65z_sEB-197" value="" style="rounded=0;whiteSpace=wrap;html=1;fontSize=15;rotation=-90;dashed=1;" parent="1" vertex="1">
          <mxGeometry x="933.6999999999999" y="2163.5" width="81" height="87.5" as="geometry" />
        </mxCell>
        <mxCell id="MKCzWIRwI4Zgw65z_sEB-194" value="" style="rounded=0;whiteSpace=wrap;html=1;fontSize=15;rotation=-90;dashed=1;" parent="1" vertex="1">
          <mxGeometry x="986.41" y="2032.1" width="80.06" height="190.98" as="geometry" />
        </mxCell>
        <mxCell id="MKCzWIRwI4Zgw65z_sEB-3" style="rounded=0;orthogonalLoop=1;jettySize=auto;html=1;entryX=0;entryY=0.5;entryDx=0;entryDy=0;" parent="1" target="MKCzWIRwI4Zgw65z_sEB-2" edge="1">
          <mxGeometry relative="1" as="geometry">
            <mxPoint x="150" y="214.65116279069764" as="sourcePoint" />
          </mxGeometry>
        </mxCell>
        <mxCell id="MKCzWIRwI4Zgw65z_sEB-30" style="edgeStyle=none;rounded=0;orthogonalLoop=1;jettySize=auto;html=1;entryX=0;entryY=0.5;entryDx=0;entryDy=0;fontSize=15;" parent="1" target="MKCzWIRwI4Zgw65z_sEB-24" edge="1">
          <mxGeometry relative="1" as="geometry">
            <mxPoint x="150" y="224.6850393700787" as="sourcePoint" />
          </mxGeometry>
        </mxCell>
        <mxCell id="MKCzWIRwI4Zgw65z_sEB-31" style="edgeStyle=none;rounded=0;orthogonalLoop=1;jettySize=auto;html=1;entryX=0;entryY=0.5;entryDx=0;entryDy=0;fontSize=15;" parent="1" target="MKCzWIRwI4Zgw65z_sEB-26" edge="1">
          <mxGeometry relative="1" as="geometry">
            <mxPoint x="150" y="236.39534883720933" as="sourcePoint" />
          </mxGeometry>
        </mxCell>
        <mxCell id="MKCzWIRwI4Zgw65z_sEB-40" style="edgeStyle=none;rounded=0;orthogonalLoop=1;jettySize=auto;html=1;entryX=0.5;entryY=0;entryDx=0;entryDy=0;fontSize=15;" parent="1" target="MKCzWIRwI4Zgw65z_sEB-33" edge="1">
          <mxGeometry relative="1" as="geometry">
            <mxPoint x="149.56521739130437" y="270" as="sourcePoint" />
          </mxGeometry>
        </mxCell>
        <mxCell id="MKCzWIRwI4Zgw65z_sEB-32" style="edgeStyle=none;rounded=0;orthogonalLoop=1;jettySize=auto;html=1;entryX=0;entryY=0.5;entryDx=0;entryDy=0;fontSize=15;" parent="1" target="MKCzWIRwI4Zgw65z_sEB-28" edge="1">
          <mxGeometry relative="1" as="geometry">
            <mxPoint x="150" y="248.02325581395348" as="sourcePoint" />
          </mxGeometry>
        </mxCell>
        <mxCell id="MKCzWIRwI4Zgw65z_sEB-53" style="edgeStyle=none;rounded=0;orthogonalLoop=1;jettySize=auto;html=1;entryX=0.5;entryY=0;entryDx=0;entryDy=0;fontSize=15;dashed=1;startArrow=none;" parent="1" source="MKCzWIRwI4Zgw65z_sEB-54" target="MKCzWIRwI4Zgw65z_sEB-51" edge="1">
          <mxGeometry relative="1" as="geometry" />
        </mxCell>
        <mxCell id="MKCzWIRwI4Zgw65z_sEB-2" value="" style="ellipse;whiteSpace=wrap;html=1;fillColor=#fff2cc;strokeColor=#d6b656;container=0;" parent="1" vertex="1">
          <mxGeometry x="382" y="73" width="80" height="50" as="geometry" />
        </mxCell>
        <mxCell id="MKCzWIRwI4Zgw65z_sEB-12" value="登录名" style="text;html=1;strokeColor=none;fillColor=none;align=center;verticalAlign=middle;whiteSpace=wrap;rounded=0;fontSize=15;container=0;" parent="1" vertex="1">
          <mxGeometry x="374" y="123" width="80" height="30" as="geometry" />
        </mxCell>
        <mxCell id="MKCzWIRwI4Zgw65z_sEB-55" style="edgeStyle=none;rounded=0;orthogonalLoop=1;jettySize=auto;html=1;dashed=1;fontSize=15;startArrow=none;" parent="1" source="MKCzWIRwI4Zgw65z_sEB-60" target="MKCzWIRwI4Zgw65z_sEB-51" edge="1">
          <mxGeometry relative="1" as="geometry" />
        </mxCell>
        <mxCell id="MKCzWIRwI4Zgw65z_sEB-24" value="" style="ellipse;whiteSpace=wrap;html=1;fillColor=#fff2cc;strokeColor=#d6b656;container=0;" parent="1" vertex="1">
          <mxGeometry x="374" y="160" width="80" height="50" as="geometry" />
        </mxCell>
        <mxCell id="MKCzWIRwI4Zgw65z_sEB-25" value="密码" style="text;html=1;strokeColor=none;fillColor=none;align=center;verticalAlign=middle;whiteSpace=wrap;rounded=0;fontSize=15;container=0;" parent="1" vertex="1">
          <mxGeometry x="366" y="210" width="96" height="30" as="geometry" />
        </mxCell>
        <mxCell id="MKCzWIRwI4Zgw65z_sEB-56" style="edgeStyle=none;rounded=0;orthogonalLoop=1;jettySize=auto;html=1;entryX=1;entryY=1;entryDx=0;entryDy=0;dashed=1;fontSize=15;" parent="1" source="MKCzWIRwI4Zgw65z_sEB-26" target="MKCzWIRwI4Zgw65z_sEB-51" edge="1">
          <mxGeometry relative="1" as="geometry" />
        </mxCell>
        <mxCell id="MKCzWIRwI4Zgw65z_sEB-26" value="" style="ellipse;whiteSpace=wrap;html=1;fillColor=#fff2cc;strokeColor=#d6b656;container=0;" parent="1" vertex="1">
          <mxGeometry x="378" y="260" width="80" height="50" as="geometry" />
        </mxCell>
        <mxCell id="MKCzWIRwI4Zgw65z_sEB-27" value="性别" style="text;html=1;strokeColor=none;fillColor=none;align=center;verticalAlign=middle;whiteSpace=wrap;rounded=0;fontSize=15;container=0;" parent="1" vertex="1">
          <mxGeometry x="378" y="310" width="80" height="30" as="geometry" />
        </mxCell>
        <mxCell id="MKCzWIRwI4Zgw65z_sEB-57" style="edgeStyle=none;rounded=0;orthogonalLoop=1;jettySize=auto;html=1;dashed=1;fontSize=15;startArrow=none;" parent="1" source="MKCzWIRwI4Zgw65z_sEB-68" target="MKCzWIRwI4Zgw65z_sEB-51" edge="1">
          <mxGeometry relative="1" as="geometry" />
        </mxCell>
        <mxCell id="MKCzWIRwI4Zgw65z_sEB-28" value="" style="ellipse;whiteSpace=wrap;html=1;fillColor=#fff2cc;strokeColor=#d6b656;container=0;" parent="1" vertex="1">
          <mxGeometry x="378" y="360" width="80" height="50" as="geometry" />
        </mxCell>
        <mxCell id="MKCzWIRwI4Zgw65z_sEB-29" value="邮箱" style="text;html=1;strokeColor=none;fillColor=none;align=center;verticalAlign=middle;whiteSpace=wrap;rounded=0;fontSize=15;container=0;" parent="1" vertex="1">
          <mxGeometry x="378" y="410" width="80" height="30" as="geometry" />
        </mxCell>
        <mxCell id="MKCzWIRwI4Zgw65z_sEB-58" style="edgeStyle=none;rounded=0;orthogonalLoop=1;jettySize=auto;html=1;dashed=1;fontSize=15;startArrow=none;" parent="1" source="MKCzWIRwI4Zgw65z_sEB-63" target="MKCzWIRwI4Zgw65z_sEB-51" edge="1">
          <mxGeometry relative="1" as="geometry" />
        </mxCell>
        <mxCell id="MKCzWIRwI4Zgw65z_sEB-33" value="" style="ellipse;whiteSpace=wrap;html=1;fillColor=#fff2cc;strokeColor=#d6b656;container=0;" parent="1" vertex="1">
          <mxGeometry x="374" y="480" width="80" height="50" as="geometry" />
        </mxCell>
        <mxCell id="MKCzWIRwI4Zgw65z_sEB-34" value="电话" style="text;html=1;strokeColor=none;fillColor=none;align=center;verticalAlign=middle;whiteSpace=wrap;rounded=0;fontSize=15;container=0;" parent="1" vertex="1">
          <mxGeometry x="362" y="530" width="100" height="30" as="geometry" />
        </mxCell>
        <mxCell id="MKCzWIRwI4Zgw65z_sEB-47" value="农产品表" style="text;html=1;strokeColor=none;fillColor=none;align=center;verticalAlign=middle;whiteSpace=wrap;rounded=0;fontSize=15;container=0;" parent="1" vertex="1">
          <mxGeometry x="335" y="860" width="80" height="30" as="geometry" />
        </mxCell>
        <mxCell id="MKCzWIRwI4Zgw65z_sEB-51" value="" style="ellipse;whiteSpace=wrap;html=1;fillColor=#fff2cc;strokeColor=#d6b656;container=0;" parent="1" vertex="1">
          <mxGeometry x="580" y="310" width="80" height="50" as="geometry" />
        </mxCell>
        <mxCell id="MKCzWIRwI4Zgw65z_sEB-61" value="&amp;lt;&amp;lt;include&amp;gt;&amp;gt;" style="text;html=1;strokeColor=none;fillColor=none;align=center;verticalAlign=middle;whiteSpace=wrap;rounded=0;fontSize=15;" parent="1" vertex="1">
          <mxGeometry x="480" y="300" width="60" height="30" as="geometry" />
        </mxCell>
        <mxCell id="MKCzWIRwI4Zgw65z_sEB-63" value="&amp;lt;&amp;lt;include&amp;gt;&amp;gt;" style="text;html=1;strokeColor=none;fillColor=none;align=center;verticalAlign=middle;whiteSpace=wrap;rounded=0;fontSize=15;" parent="1" vertex="1">
          <mxGeometry x="430.5" y="470" width="60" height="30" as="geometry" />
        </mxCell>
        <mxCell id="MKCzWIRwI4Zgw65z_sEB-64" value="" style="edgeStyle=none;rounded=0;orthogonalLoop=1;jettySize=auto;html=1;dashed=1;fontSize=15;endArrow=none;" parent="1" source="MKCzWIRwI4Zgw65z_sEB-33" target="MKCzWIRwI4Zgw65z_sEB-63" edge="1">
          <mxGeometry relative="1" as="geometry">
            <mxPoint x="333.5538181987504" y="451.39075905225536" as="sourcePoint" />
            <mxPoint x="586.4622553479744" y="348.6247087648853" as="targetPoint" />
          </mxGeometry>
        </mxCell>
        <mxCell id="MKCzWIRwI4Zgw65z_sEB-65" value="用户登录" style="text;html=1;strokeColor=none;fillColor=none;align=center;verticalAlign=middle;whiteSpace=wrap;rounded=0;fontSize=15;container=0;" parent="1" vertex="1">
          <mxGeometry x="580" y="360" width="80" height="30" as="geometry" />
        </mxCell>
        <mxCell id="MKCzWIRwI4Zgw65z_sEB-54" value="&amp;lt;&amp;lt;include&amp;gt;&amp;gt;" style="text;html=1;strokeColor=none;fillColor=none;align=center;verticalAlign=middle;whiteSpace=wrap;rounded=0;fontSize=15;" parent="1" vertex="1">
          <mxGeometry x="490" y="200" width="60" height="30" as="geometry" />
        </mxCell>
        <mxCell id="MKCzWIRwI4Zgw65z_sEB-66" value="" style="edgeStyle=none;rounded=0;orthogonalLoop=1;jettySize=auto;html=1;entryX=0.5;entryY=0;entryDx=0;entryDy=0;fontSize=15;dashed=1;endArrow=none;" parent="1" source="MKCzWIRwI4Zgw65z_sEB-2" target="MKCzWIRwI4Zgw65z_sEB-54" edge="1">
          <mxGeometry relative="1" as="geometry">
            <mxPoint x="438.46647895156843" y="119.47967097887363" as="sourcePoint" />
            <mxPoint x="620" y="310" as="targetPoint" />
          </mxGeometry>
        </mxCell>
        <mxCell id="MKCzWIRwI4Zgw65z_sEB-60" value="&amp;lt;&amp;lt;include&amp;gt;&amp;gt;" style="text;html=1;strokeColor=none;fillColor=none;align=center;verticalAlign=middle;whiteSpace=wrap;rounded=0;fontSize=15;" parent="1" vertex="1">
          <mxGeometry x="480" y="240" width="60" height="30" as="geometry" />
        </mxCell>
        <mxCell id="MKCzWIRwI4Zgw65z_sEB-67" value="" style="edgeStyle=none;rounded=0;orthogonalLoop=1;jettySize=auto;html=1;dashed=1;fontSize=15;endArrow=none;" parent="1" source="MKCzWIRwI4Zgw65z_sEB-24" target="MKCzWIRwI4Zgw65z_sEB-60" edge="1">
          <mxGeometry relative="1" as="geometry">
            <mxPoint x="439.97663708622554" y="204.01083496254478" as="sourcePoint" />
            <mxPoint x="593.9475211044369" y="316.0297483770171" as="targetPoint" />
          </mxGeometry>
        </mxCell>
        <mxCell id="MKCzWIRwI4Zgw65z_sEB-68" value="&amp;lt;&amp;lt;include&amp;gt;&amp;gt;" style="text;html=1;strokeColor=none;fillColor=none;align=center;verticalAlign=middle;whiteSpace=wrap;rounded=0;fontSize=15;" parent="1" vertex="1">
          <mxGeometry x="462" y="350" width="60" height="30" as="geometry" />
        </mxCell>
        <mxCell id="MKCzWIRwI4Zgw65z_sEB-69" value="" style="edgeStyle=none;rounded=0;orthogonalLoop=1;jettySize=auto;html=1;dashed=1;fontSize=15;endArrow=none;" parent="1" source="MKCzWIRwI4Zgw65z_sEB-28" target="MKCzWIRwI4Zgw65z_sEB-68" edge="1">
          <mxGeometry relative="1" as="geometry">
            <mxPoint x="455.2631047793989" y="375.91143785868326" as="sourcePoint" />
            <mxPoint x="582.8103612356745" y="344.20535612978347" as="targetPoint" />
          </mxGeometry>
        </mxCell>
        <mxCell id="MKCzWIRwI4Zgw65z_sEB-80" value="" style="ellipse;whiteSpace=wrap;html=1;fillColor=#fff2cc;strokeColor=#d6b656;container=0;" parent="1" vertex="1">
          <mxGeometry x="334" y="800" width="80" height="50" as="geometry" />
        </mxCell>
        <mxCell id="MKCzWIRwI4Zgw65z_sEB-201" style="edgeStyle=none;rounded=0;orthogonalLoop=1;jettySize=auto;html=1;fontSize=15;entryX=0;entryY=0.5;entryDx=0;entryDy=0;entryPerimeter=0;" parent="1" target="MKCzWIRwI4Zgw65z_sEB-190" edge="1">
          <mxGeometry relative="1" as="geometry">
            <mxPoint x="880" y="2020" as="targetPoint" />
            <mxPoint x="795.75" y="2094.5268592004704" as="sourcePoint" />
          </mxGeometry>
        </mxCell>
        <mxCell id="MKCzWIRwI4Zgw65z_sEB-202" value="业务数据" style="edgeLabel;html=1;align=center;verticalAlign=middle;resizable=0;points=[];fontSize=15;" parent="MKCzWIRwI4Zgw65z_sEB-201" vertex="1" connectable="0">
          <mxGeometry x="0.2622" relative="1" as="geometry">
            <mxPoint as="offset" />
          </mxGeometry>
        </mxCell>
        <mxCell id="MKCzWIRwI4Zgw65z_sEB-203" style="edgeStyle=none;rounded=0;orthogonalLoop=1;jettySize=auto;html=1;fontSize=15;" parent="1" edge="1">
          <mxGeometry relative="1" as="geometry">
            <mxPoint x="930" y="2120" as="targetPoint" />
            <mxPoint x="795.75" y="2145.4292561349694" as="sourcePoint" />
          </mxGeometry>
        </mxCell>
        <mxCell id="MKCzWIRwI4Zgw65z_sEB-204" value="服务注册、发现&lt;br&gt;配置中心" style="edgeLabel;html=1;align=center;verticalAlign=middle;resizable=0;points=[];fontSize=15;" parent="MKCzWIRwI4Zgw65z_sEB-203" vertex="1" connectable="0">
          <mxGeometry x="0.2449" y="-1" relative="1" as="geometry">
            <mxPoint x="-19" as="offset" />
          </mxGeometry>
        </mxCell>
        <mxCell id="MKCzWIRwI4Zgw65z_sEB-205" style="edgeStyle=none;rounded=0;orthogonalLoop=1;jettySize=auto;html=1;entryX=0.5;entryY=0;entryDx=0;entryDy=0;fontSize=15;exitX=0.414;exitY=0.999;exitDx=0;exitDy=0;exitPerimeter=0;" parent="1" target="MKCzWIRwI4Zgw65z_sEB-197" edge="1">
          <mxGeometry relative="1" as="geometry">
            <Array as="points">
              <mxPoint x="860" y="2207" />
            </Array>
            <mxPoint x="795.3665000000001" y="2206.174" as="sourcePoint" />
          </mxGeometry>
        </mxCell>
        <mxCell id="MKCzWIRwI4Zgw65z_sEB-206" value="视频图片" style="edgeLabel;html=1;align=center;verticalAlign=middle;resizable=0;points=[];fontSize=15;" parent="MKCzWIRwI4Zgw65z_sEB-205" vertex="1" connectable="0">
          <mxGeometry x="-0.3416" relative="1" as="geometry">
            <mxPoint as="offset" />
          </mxGeometry>
        </mxCell>
        <mxCell id="MKCzWIRwI4Zgw65z_sEB-207" style="edgeStyle=none;rounded=0;orthogonalLoop=1;jettySize=auto;html=1;fontSize=15;" parent="1" edge="1">
          <mxGeometry relative="1" as="geometry">
            <mxPoint x="930" y="2290" as="targetPoint" />
            <mxPoint x="795.75" y="2245.421587423313" as="sourcePoint" />
          </mxGeometry>
        </mxCell>
        <mxCell id="MKCzWIRwI4Zgw65z_sEB-208" value="缓存" style="edgeLabel;html=1;align=center;verticalAlign=middle;resizable=0;points=[];fontSize=15;" parent="MKCzWIRwI4Zgw65z_sEB-207" vertex="1" connectable="0">
          <mxGeometry x="-0.1557" y="-1" relative="1" as="geometry">
            <mxPoint as="offset" />
          </mxGeometry>
        </mxCell>
        <mxCell id="MKCzWIRwI4Zgw65z_sEB-190" value="" style="outlineConnect=0;dashed=0;verticalLabelPosition=bottom;verticalAlign=top;align=center;html=1;shape=mxgraph.aws3.mysql_db_instance;fillColor=#2E73B8;gradientColor=none;fontSize=15;" parent="1" vertex="1">
          <mxGeometry x="944.1999999999999" y="1994.75" width="60" height="64.5" as="geometry" />
        </mxCell>
        <mxCell id="MKCzWIRwI4Zgw65z_sEB-192" value="" style="shape=image;aspect=fixed;image=data:image/png,iVBORw0KGgoAAAANSUhEUgAAARgAAAEYCAIAAAAI7H7bAAAfvUlEQVR4nOzdB3QUVf838Dt3ZtM7AUJPQieAVMGCkIAg8og+KOpffZCiKA+Cgl2KoKIiglRfERREEcGGiCJKL6EKAYEA0gIhdFJ3k92d8h6If0+y2b07u/lt8H3P93M4HpPMztxk57v3zr137iiGYTAAqBx+owsA8P8DBAmAAIIEQABBAiCAIAEQQJAACCBIAAQQJAACCBIAAQQJgACCBEAAQQIggCABEECQAAggSAAEECQAAggSAAEECYAAggRAAEECIIAgARBAkAAIIEgABBAkAAIIEgABBAmAAIIEQABBAiCAIAEQQJAACCBIAAQQJAACCBIAAQQJgACCBEAAQQIggCABEECQAAggSAAEECQAAggSAAEECYAAggRAAEECIIAgARBAkAAIIEgABBAkAAIIEgABBAmAAIIEQABBAiCAIAEQQJAACCBIAAQQJAACCBIAAQQJgACCBEAAQQIggCABEECQAAggSAAEECQAAggSAAEECYAAggRAAEECIIAgARBAkAAIIEgABBAkAAIIEgABBAmAAIIEQABBAiCAIAEQQJAACCBIAAQQJAACCBIAAQQJgACCBEAAQQIggCABEECQAAggSAAEECQAAggSAAEECYAAggRAAEECIIAgARBAkAAIIEgABBAkAAIIEgABBAmAAIIEQABBAiCAIAEQQJAACCBIAAQQJAACCBIAAQQJgACCBEBA8eM1BQUFJSUl4dcRFiV92zbVqVb8vsGMZk2b1axZg/BYqqZlZ2fn5JxTVTU2NjYpKTGC9HfxoSQ6u1jEzhXqOYUsz8HySgxVZ+HBLDZUqhnGEiJY7QgeEXRDiuZKY+y8XT9pNy44jVxduqLqmmFEKryaRYrjRmIwr2uRImSpCkqiqtqFC+dzzp232awS8/+INWrWaNa0KUmRJMMwzG+9Z8/e6TNnHzhwUNf1oKCg/g/0GzlieHBwMElRUrv3vHo11+2P3pg4/t6+95AchTF26FDmuNcnHjt2vPRLSZLCw8PuvbfvU08OiY6OpjqKmMHYiSvGb8f0dSeMqyXXvrz2NkjXPjWYxCR+/UsuMZlZOGtfS+rRQLqlFg+zVE3pXB226UuvaOkFxlX9+uli6Nf+c62c17/i1/+IiiwbWqtw5f5IKTVcCQlMW+fw4SOLPv8ifdv23Ny8yu/t3r73vDFxPEW5fKmRfv75l9cnvulwOEq/tNvtXyxesnHT5g+mvd+4UUOS0niiqhrJfvLz82fP+T/Lf/jx79/i2nlgGEVF1sWLl6xZs27SWxM7dmhPcixPcm1s/XF91RHjVK7xV3hKP1IrnnmGYWjMobP0bCP9HIsM0lLrSz3q85ZxXK6SJvklB/v2irouT8+yG/r/hoeV/qtYVFVVJba3yLm3mIdz9bYIuX8kbxcik5SkpKTkx5U/fff9D4cPH9F1nWSf1z9DqfZkOkgnTpyc+OaksudfqTNnsp8b9fzizxfGxMSQFaoCkt/3ypUrQ58afuz4cU8bXLhwYdh/Rwx7euiggQM4pz9V/7zEvt6nbTrBVP16teP2jPREZ4V2Y8UxY8UJo0G0/mQK71I7gGE6WKQvvqhtytPtus48hcdjUXWrwVYX6KuLWFKw/GiU0jdC9ucS4q+d6V8t/Xru3Hl5+fn+7qMqmH0zvvxqaUlJidsfZWefnfbBTNJSBcSktycLUlTK6XTOnDXnhx9+JD/6Jzu04d9q6/9kWiU/Tw3jVJ4+Zrv2Qrqaa/ehWW7eikvaE0fUNVc0h1a5/RvGSbv61hX7i5cdRbqfu5o775PJ773/D0+RD0Hatm2H4Kc/rvxp0eeLiYoUEJ98umDtuvUmN54+c/alS5eoDn3Vyt78RVu6u/QyiIhh7DyvP7VBPXCFMks5JcYrx9RJJ1VNJWs+Md3YaHX2u2D/1eZb+9zpdE5+7/2PP55PVpJAMhukoqIiwU91XZ86bfrni78kKhWxjZs2z5z1ofnt8/LyJk+ZSnLoNUf0wYu1LcdIdubqvNUYudU595Bmp7iEzCjQBx50rr+sGv7WHh4Z7LJTe/WKfVa+03xJp7w/7cslSwmviALKbJA4995Gnjlz9ukzZypdJHqfLljo60vWrFn3xx8HKnncPWeMqWuNYtfrSkpOjX1xVJu6v7JJOlSojz6i5tkDeNYahrGgwDn2qtNpIqdHjhxd9vW3gSsMObNBMtOX4HA4x4+fWFxcXOlSUTqUeXjfvj98fZVhGJPenqyqbsa1TNp3lr37WxV9nq46rX1+1P8sbc3VhmeqRY7Al9UwVlud7+Q5vR5p/qcLfBqYueHMBkky11O4N2PfE0OH5eX9gy4NF3+5xL+3JPPw4Y2bNvt30PQT+qsrtHyb76/0qX/sbwabe1h7c69q8z3423P1Vw87bd7P7Qok6a9/PjGM5UXOjwucgk327f9jzZp1PpfnhvK7W9KjAwcOfjB95sQJ48j37Ae73b5xo59hYIytXbuue1qqr6+yOdj0DYZmvobgLFhhLWtJidGsRpgky6zAwc4Usn2XjMvFzOyngGGsPqMZjI1v68N7mlmov3ZEtWuG2TxwHimzlAgl2aLVDpI4Z/mqnqXxQ3Yjy6GXDtSaKer8ArWNReoc6r6oixZ9YaYqj46OatSwUXCI//MBGiYn+/1aF/RBYoyt+HFlWlq3rnd0CcTOffL98hWFhYWCDTjngvdsy5b0kpKSkJAQnw762Q6zdVFYMOvRiN/SQGoeL0VUOB9UnWUXGrvOGz8e07OKTMVp9VktMZINaGTqbU3P1ccedtpUw0wdGGfhPeLk2yOkthHy9VkL5UZadcZOOfRtNn1Nkba/RPfaQanr+it56mcKb2BxbRMVFBZu2Zoufvmtt3R++OEHO3e6mWpWTeUFJEi6rr82ZtzMGdPat2sXiP2bZLVa5348T7BBclLSnXd2n+u5gzW/oGDd+g13977L/EE3/mms2O99s+hQ9kBrqXdTOSbU4zYKZ4nRUmK01K8x33PR+OyQ9sdlb5/TBvv4iHaiiL3UUgkTvrfpV/VXMp0OzXuKwhX+n5ryIzWUUM/XAZyx5CCeHMQfjVG22bR5eVpGsZdWZoFTm5TnnFs92OX4hzMPexqxLPXsyOGDBw30UugqF6jR8aIi6/ARz505k02yN3uFGRVmbN+x09PkvVK9e/f6V5+7xZd/PjXWC0vY9A26197jmDA2o6/8P21EKSpL5qxjgjS9m3J7XRPvl8F+O6tNPiA6jw8W6GMOOx2q91ouOVxZ1twyJEGUIhe3hMmf1g4aFGvx2lzcbdf3lri2gE8Lz5nw8LBHH3nEbFGqUACnmRTbise9PrHirKIqIx6BlSQpNbVr/fr1br21s2Cz7Tt25uaK0ljWTwc1m93LNnVj2JQ+St0Yn7sUFM7G36z8TzPZzOylNee0L0+6v0rbflUfsd9Z7PCeokYR8uyGSo0gf06S4XGWQTHesqTrSyqM0uYLJzE0bdIkOPifMRm+vMBOfty7N2Pxl18F9BCeOJ3OTZu2CDZo0+amxo0aMcaGDB4k2MxqtX7z7Xdmjmgw9sshL9vUjmaz/i0nVTOzPzeCFfZ0K/mxZt5ngraM4/0buNksp1gfe8hZbGIoJy5EmZosVw/yc54jZ2xErGVAtIUJRyA32LSz5TsMxe266tWr+1eeQAv4LOK5H8/fmr4t0EepaOfO3eJuhkEDB5T+T9s2NzVsKOq9+WrpNzYTg2OZ59g5Ybd/sIW9nCZX7FTw1cDmclo90RvXqhp/s7WlwmX8tRS9fFC1mqiLGkfwhU15reDKnh4jYy09w0XXapquf1RYrhUq7qTUTXYMVrmAB6m4uHjks6M3bRZVDoGw/IcVgp82a9b0705Fzvl99/YVbHz58uW1Jq6U1hwRdXgrCpvQi7dI8Lob7xTOxnZQHm8uu72Z4p4GfM7NlhoVrr62X9EH7HIey/d+IjaJlGc3sST41aJzwRkbExdU3SKqQn8p1rPLVEoREaI7LLOzcypfqkCoivtaVFV9fcKbRVZrFRyrlNVm27xlq2CDtPKjQ2mp3bx0OZiY8LpX2LFyWxJrX4/s9heFsyHN5f80k1363G6K5y+0tFQM2FmbMfaA02qiRVctRH6/kRJrIStqJGePRAkrJU3bWWZqUrW4OMHGR48evXLlClXZCJkNUkiwx7GU2NgYi8XLrZtXr1595933qmzSx7Jl34hnKqWldi37Zd26dbp0uV2w/Y4dO8UNxexcdl7QrpPYv1Lo78Ee0ETuUaYf76bq8httlYr3emfb9Jf3O8206JpFyQuaKwmuPdKV9a8wHmkRZWlfmdlJDRIbCLbUNG3ylGk2mx9zRgLL7DhSaJjHntr69erd868+b739rngPK1f+bBjGhPHjgoICe8N0fkHBJ5+KZqm2aplS2s1Q1ujnRqanb/M0ua64uHj1r789cH8/T/vcdFzU610/lrWuQ1/5K5yNaafUj9Q+O6r3acBHt3KTop1X9Nf+UG0O3et4UZNIeVZTS3QA3pxqMh8ULs3MlzxdAJUNUtMmjWNjYwU9patX/7pt2/Y+fXp3veP2OrXrKIrHdqPEeUR4RHh4WCBu03RBMyDbv//9x0+cWPLVMvFmP/20qknjxgMf/w/JQT1JT98mrj3S3M36SUpKbN2q5Z69GZ5etWbtekGQDp4Xfd63q09zk29FCmeDmspJkaxLLbliis4VG2P3qzYTLbrYEPm9JnIgUlSqb7hlTr7HBQNynFqxwUKvlz84OLhXrzu/Ep5LBQUFS5YsXbJkKZMk4SQKg3NeLS6uWfNmd/XqmZraNTwsrHK/h0dkSX3h+VHdut7hdbO5c+cdOXqU6qBurRNez3DO01K7uf1R9+5pghf+vmdPTs45tz8yGDslbLc3iQ/s2jrdartLkc14OUMtMnEXbeMoeUGKXDtA65VcFydLiZ57L1SJXy5z5/CAxx41Oy3LKF02xtM/puv6pcuXN2/eMmbs+LTuPZ8d9fzOXbtpfqXyyP52iqK8PemNik0mF7bi4tHPv3Tu3Hmq47q4ejV3g3CWau/evRI9tMLv7n1XUJDHwT6H3TFj1my3P7LZWa7nnhSJs8RqVb1+4I7L+uPbnMfyvPfRNY6UZzW31Apkiko1UUSfJpfK3JNbp07tB/s/QF6AkhL7hg2bnhw67OFHBpAPyVD++cLDwydOGCfLXoYLs7PPPjl0mNWXTjzzvRSbt2wVzKWQJGnwwMc9/TQuLrZdu7aCnf/229qLF93cgm5XmWB1A0NnsYFqULh3JF8fm2FqvCguVH6vmUzYRydQTfF8HWEY1vKRHzRoQGiouQlUvsvMzHxmxCjzSw+YQfw5lJLSYsp774Z4m9l+Jjv7nclTzO9WM31Pgrhd1zKlRSPhymE9uotumtA0bf2GDRW/79C8TIURjqMQO2vVR+zSbCZSFGGR5rWSq6AuKhXMRUVy6eSJi40d9dyIwBVG17UxY18XDzb6hP6P2D2t2/hxY7zeCPjjj/TrpZw6lSWegX/ffaKBV8ZYr149o6KiBBt8v9zNn17hXsbjK7tykC/qhPNxrXikiak9RU5j4p/apcAsRVSRuMuj4on40IP935/ybmRkZIDKU1xc/PqEN732kJlEEKSK9/P0ubv3nT26e33hzFlz9u/3+SZwgUWffyG4OZxz3q1bV/EeoiIjxbMcMjMPZ2efdflmsIVJns8SibMC0fQxel1qymNaKeJJbqX252pjjqomZoETyBesTCRJYe7OxDt7dJ/xwdSA3nQ0a/aHhYWihX1MIgiS0925+/JLz4sbUaXzSp8ZOero0T8rX4bSMd+fV60WbNDmppviq3mfLvroIw+J37l1611bd6EKC/f8CsNg5wqqeoZYl5p80k1yuIl6aX+eNvUE4epbHp0WHUSK8RD79u3bfvrJx11uv83rtbd/rFbrkq+WVn4/gWofx8fHf7bgk5YtU8Sb5efnj3r+xbw8gnWcf171i3g2w333mVo9PCEhITVVVHF9v/wHl0pYkVmiYFKywTKFo0yVt+m8frrCLbTdEuTp7ZUIE1n67rxz+CHnZROXVX6z6uyI5/1zQ0vwPK7aMqXF7FnTv1m25Ikhg5OTkwjXGS715ZKvfOr6ciuAF5oREeFvvfG6IuiruS47++zUaTMqf7g1a0XdDBaLxfyt7+J1Gk6cOLk3Y5/LN5tWF729Ga6NQUo7LugTdmuv7VatFRYUSYnhL7dQvK/HYLA9udr4YwGslzbYnIJZPfGKHOntTExOThrxzLDvvln6xaKFQ58c0rnTzfHx1cLCwwT/TFZiubl5v/62xsdfyJXZmQ2xfi3tnZSUNHLE8GkfeMnJyp9+9toOFLt48aJ4Gbq+9/Qxvzr5LZ07hYWF2mwe67f58z9t/+Gsst/pWF/6NsPwNMp+9CK7WMhqBOCyeU229vZezamxU/nGU1udb3dQ6keUi033BG4w5d1Mp9XbldDuPG3aKWl0okL+4aoy9rlNZ57XxmhseoKNJEktW6aUtnR0XXc6nYJuLafTmZNzLmPf/hU/rhRfja/8adW/77vXbCHcMb0cl4krV7ceH/DY6FHPiic76bo+7YMZ4tvCxVb+tErQzRAaGvrfYU+b31tkZOSdPXoINkjftv3AwYNlv9OqjhTnebBI09g3+2geqFHWb2f0t37X/l689FSB/uwOZ1aR6/naI4FPa2sJ9TpYZLBl59SRR9RcMys4+uIXq3pUuBjszR6WExLjnAcHBwd5Fh4e3rhxo/4P9Fv46bw+d/cW7CojY19BgWhamffCVObFJj0+4LG+dE83cks8uNaxY4f4eN/uSu0uHFC6PmBVrstB4ax1HdH2qw5dq5QIpZ/T392ruXSsX7QZr/2uFVVo47WO4S83M9XG25WrTjhJ2cbTGVtYoArGByRF6RjgEWFZlgcPGiDYQNO0S5cuVuYQVTQYN/q5kQ3q1w/Qzo8e/TMz87BgA/Ewq1sdO3SoHh8v2GDt2vUuXQ6dGojOBruTTVitFXlb0cGkX0/r43ZqTnettaxCfeg2Z8Xlu3olyBNTFO/1EmPbcrUZp/1YMNK97wvVE8I1XBvJrHFwwEesExMTBU+RMwyjkg+8IAiSmWkH0dFR0z94v1o10T1b/jEMY+q06YIyRISH9xDORnUrLCx0+HBRa/BUVpZLl8NtyTxGOBXo2CU2aY1m938V5L+sPq2/87vq9DwrKatQH7lLzbjqevr2rClPaW0JFc55Y9frpSXnteePqfmVLuoqq/Z+rlNQHXGJvxwdmI7t8hRFqV5d9MnocIgWf/WKYkDW3Lh9cnLSxx/N8XWxxVJOp8dfMivr9PYdOwWv7XxLZ/+edfuvPnfHxor6J1zak8EWltrEyz53n2ZjV2kllXjLNmVrk393bdFVdLlYn3RQq1gTtI/hLzQxMVZrsK256oSsSrXxfrNqYy457MKytg7m7UICsrhiReLREV65bvUqnZXcqFGjF18YRbvPisOjLrqnub9pwiuLxSK+MWT9+g0uPRx3t5C93rWYcZaN/UXL9f0WT91gn2dqE3bqZmYitIjlc2+2uL1x4e4E+dWmSrDXeoldy9LEU84Cv+ql1VZtwmWHl0WMJenhiCqahpibl+d2wvHfRYmIiKjM/qt6ev8D9/d75H8eotqbruvLhU/Xq1GjRmo3P4N0fQxX1CWak3Puu+9/KPud+nFsVKr35w1knDWe/FZdul83OXVIM9ieC/qojer8PzTNxFP0UmvLH3SwxHmebNE3QZ6SooSYaOP9fFm995B94QWtxHTdtNOmDT3nfPWCo9hbvdkuRO4hXg+WznffLRe0aySJJSTUrMz+qzpIjLFRz41MSWlBsqvjx09kZWUJNnj4of6hof40Jku1btWyZo0agg0WfLbI5fIsrQnvlOR9z3k2Nn+7PuQ7dd0xL03jrALjhQ3q6I16xgVT53K32vJbbZUIbxXjzbHys8mm5uMVOfU5Oc5Hjzp+zXXTVixXVIc+7oJzWI7jd6vouugvnD8TWTUPlWYbNm7+8KO5gg1q164VGxtbmUNU0edBWUFBQR/Omfnk0GGVn2Un7vWOCA+/v999ldk/57xbatelS7/2tEHO2Zzf9+y9uWOHst984hZ5X7Zm5vliuVb29kZ9zi69ZQ3WrAavEc6igpnMWbHKLhWzE3nGoSvGyQLj2pWKuce9tIzjr7Yy+57eW0vWGJt1Ui3xusiyYZwu1sacNmItaqcI3jBMTpD1WIvEGbPqxiWNnVHZLpv2p103mGGmqJIkjYhW2ni+Otqavq3yqwXZ7Y6s06f37s3IPJSpCR9v0a3rHZVc1+EGBIkxFhMd/cG0KY/9Z2Burv+z7FRVXbFipWCDO3v2qPyz1v99b99ly74WfLx+v3yFS5DqxbLn06R3fjVM9cIY12qnLafY5tM6k5gh/fXAc+P62kMeH8fvhpRWh7/cWgk3ve4CZ+yBWnKdEOmlww5TDxnT9asOtipXZ3lq6XoIEjeuhax06rv5okrS4GjLwEhRQRcuXBSge8IrCg4OfnzAYxW/X6yzC5pukVgtxXvIzKZQ5sQXhXXr1HnxhdGV2cPWrdvO5oiWC/S7m6GsZs2atmjeXLDBpk2bKza+uzTiI7qafDhbeYafz2zuXld+o70PKfrbLbF8eKKpNp4r4/oDkXxfYq11iPJ0VGBXkvLJbbd2rlnT9QJpU7HW50LJ/Zec95x3DL1kz/HWf2k6SJ77+jXdz8kvve/q9dTQJ/w63Ziu6+I1t6Kiojq0b+9fwcqSJGnwYNFDRIqKitz2v/dO4UNulQK1elB5N8Xzl1r7/0n3YC1ldKKpfrzKkqSWoZZ3YqvyjmHvHnnkYZfvLClSX7zqyHNqhqoyXdtTrD580fG78AG7FAOyHldZ8oJz/t9hTw0Z4s+zbvZmZOzbL3oO0V139aS66T8ttVvjxqJFXZa7u22WMda/LX8+TQoJ5MMTFFl6uLH8fmd/6qK/ccYeqiXPaG6Jplim2DNpQJRlQfWgWlWQWNMeuP/fHTuUa5nvKdGm5Dmd5dvlRar21lVR+/cG9Nq5+O/TTzVp4m0gswKXqW4V+fHISk845+K9bdmaXlTk/oaWns357P68uujudf9JXHq1rTw8RSYZ0mwXxWc0U2JCAlNbcD44Oui56H9WXZSclDR69HMu39ytMrcT1bNUPcfzxKkbHyRZlt+cOF68UkLNmuX6oDVNE4/D1qldu22bNnRlZJ6WwitVUlIiuMuyXqw0vZ/c2USfuE+SovnkznJP4WMpfNUigi9NUfpdu7imqzQkqWmIMrNa0PDoG9Oz5UmnTh0XLphXcclIm+c+zDzPP7rxQSq9oP/8s09d0vK32NjYO7qUuydv167dntZqLPXsyOG0j6Nq2rSJeOxrwcLPBPf5xkewN+6WZ/bjdzRilR06kaT6UfyNzsrC7krnBPq3L8YivdJAmdfckhonu1mN3yeSVD9IfqVa0KKE4NtDK65gecNYgiyDBg6YM2uG22msDWXmdpp8mMQaeq5Q/xFBuj45t8HY1151+6OXXhwdGVlu+oZ4+Kh69fgeJpZe8ZW4D9BqtW3eLHr+xbXPi5rSuDvl+Q/yLg0lyY8/vCTViuQvtucLeijd6hBWGW60iuCTG1oWNVNaRSmSH3NKOY+xyK/HB31XJ+TBSOUf1EPHWNu2bb5d9tVzz47w9OSH1FA5xl1guodbBM//NFvbCvo4qe4Cu+OO26dNnfL998sPHzlSUFAYGRnZvl3bhx7q3778oo12u33Dhk2C/aSmdgvEQhlpqamz53wkeAT62nXr77mnj9f91I2RXr9TPn7F2JVt7DunH7zIrILJbJzJEmsQI7WuIbWrIXWuxYOq8CKjYRif14Qft+npRfKWfO3PEsP6V2e3u/ecc86MOiG8cxjvFMo7hHq/e7zKSJJUt26dDu3bde16R5fbbxMvfxDBpY/iLK/kGqcc/9u5L0mdwizPRIn+9JLJRUwPHDx0/rz7dYZDQ0Nvu/UWMzsxyTAMp9NpsVjc9ow7HI6zZ0XDR/Hx8S41GJXTZ84IuihlRa5fr56v+yxR2YmrxpHLxpErxukCdtFqaAaLCmH1YqTkGKNxHG9WTaoe9o9oFjl043CxnmE1TjiMLCfLLtF0bkQpPDlUrivrbcN4SiiPV2iqyvmfLDh58lQldyJJUvXq1ZOTE1NatEhKSvRpoMWqG/MK1dVWNUaWhkRaeoR5+QAzGyQAEPjH1L4A/y9DkAAIIEgABBAkAAIIEgABBAmAAIIEQABBAiCAIAEQQJAACCBIAAQQJAACCBIAAQQJgACCBEAAQQIggCABEECQAAggSAAEECQAAggSAAEECYAAggRAAEECIIAgARBAkAAIIEgABBAkAAIIEgABBAmAAIIEQABBAiCAIAEQQJAACCBIAAQQJAACCBIAAQQJgACCBEAAQQIggCABEECQAAggSAAEECQAAggSAAEECYAAggRAAEECIIAgARBAkAAIIEgABBAkAAIIEgABBAmAAIIEQABBAiCAIAEQQJAACCBIAAQQJAACCBIAAQQJgACCBEAAQQIggCABEECQAAggSAAEECQAAggSAAEECYAAggRAAEECIIAgARBAkAAIIEgABBAkAAIIEgABBAmAAIIEQABBAiCAIAEQQJAACCBIAAQQJAACCBIAAQQJgACCBEAAQQIggCABEECQAAggSAAEECQAAggSAAEECYAAggRAAEECIIAgARBAkAAIIEgABBAkAAIIEgABBAmAAIIEQABBAiCAIAEQQJAACCBIAAQQJAACCBIAAQQJgACCBEAAQQIggCABEECQAAggSAAEECQAAggSAAEECYAAggRAAEECIPB/AwAA//+86x+E8WpAVwAAAABJRU5ErkJggg==;" parent="1" vertex="1">
          <mxGeometry x="948.4499999999999" y="2100" width="63.5" height="63.5" as="geometry" />
        </mxCell>
        <mxCell id="MKCzWIRwI4Zgw65z_sEB-193" value="" style="shape=image;aspect=fixed;image=data:image/png,iVBORw0KGgoAAAANSUhEUgAAARgAAAEYCAIAAAAI7H7bAAAfvUlEQVR4nOzdB3QUVf838Dt3ZtM7AUJPQieAVMGCkIAg8og+KOpffZCiKA+Cgl2KoKIiglRfERREEcGGiCJKL6EKAYEA0gIhdFJ3k92d8h6If0+y2b07u/lt8H3P93M4HpPMztxk57v3zr137iiGYTAAqBx+owsA8P8DBAmAAIIEQABBAiCAIAEQQJAACCBIAAQQJAACCBIAAQQJgACCBEAAQQIggCABEECQAAggSAAEECQAAggSAAEECYAAggRAAEECIIAgARBAkAAIIEgABBAkAAIIEgABBAmAAIIEQABBAiCAIAEQQJAACCBIAAQQJAACCBIAAQQJgACCBEAAQQIggCABEECQAAggSAAEECQAAggSAAEECYAAggRAAEECIIAgARBAkAAIIEgABBAkAAIIEgABBAmAAIIEQABBAiCAIAEQQJAACCBIAAQQJAACCBIAAQQJgACCBEAAQQIggCABEECQAAggSAAEECQAAggSAAEECYAAggRAAEECIIAgARBAkAAIIEgABBAkAAIIEgABBAmAAIIEQABBAiCAIAEQQJAACCBIAAQQJAACCBIAAQQJgACCBEAAQQIggCABEECQAAggSAAEECQAAggSAAEECYAAggRAAEECIIAgARBAkAAIIEgABBAkAAIIEgABBAmAAIIEQABBAiCAIAEQQJAACCBIAAQQJAACCBIAAQQJgACCBEBA8eM1BQUFJSUl4dcRFiV92zbVqVb8vsGMZk2b1axZg/BYqqZlZ2fn5JxTVTU2NjYpKTGC9HfxoSQ6u1jEzhXqOYUsz8HySgxVZ+HBLDZUqhnGEiJY7QgeEXRDiuZKY+y8XT9pNy44jVxduqLqmmFEKryaRYrjRmIwr2uRImSpCkqiqtqFC+dzzp232awS8/+INWrWaNa0KUmRJMMwzG+9Z8/e6TNnHzhwUNf1oKCg/g/0GzlieHBwMElRUrv3vHo11+2P3pg4/t6+95AchTF26FDmuNcnHjt2vPRLSZLCw8PuvbfvU08OiY6OpjqKmMHYiSvGb8f0dSeMqyXXvrz2NkjXPjWYxCR+/UsuMZlZOGtfS+rRQLqlFg+zVE3pXB226UuvaOkFxlX9+uli6Nf+c62c17/i1/+IiiwbWqtw5f5IKTVcCQlMW+fw4SOLPv8ifdv23Ny8yu/t3r73vDFxPEW5fKmRfv75l9cnvulwOEq/tNvtXyxesnHT5g+mvd+4UUOS0niiqhrJfvLz82fP+T/Lf/jx79/i2nlgGEVF1sWLl6xZs27SWxM7dmhPcixPcm1s/XF91RHjVK7xV3hKP1IrnnmGYWjMobP0bCP9HIsM0lLrSz3q85ZxXK6SJvklB/v2irouT8+yG/r/hoeV/qtYVFVVJba3yLm3mIdz9bYIuX8kbxcik5SkpKTkx5U/fff9D4cPH9F1nWSf1z9DqfZkOkgnTpyc+OaksudfqTNnsp8b9fzizxfGxMSQFaoCkt/3ypUrQ58afuz4cU8bXLhwYdh/Rwx7euiggQM4pz9V/7zEvt6nbTrBVP16teP2jPREZ4V2Y8UxY8UJo0G0/mQK71I7gGE6WKQvvqhtytPtus48hcdjUXWrwVYX6KuLWFKw/GiU0jdC9ucS4q+d6V8t/Xru3Hl5+fn+7qMqmH0zvvxqaUlJidsfZWefnfbBTNJSBcSktycLUlTK6XTOnDXnhx9+JD/6Jzu04d9q6/9kWiU/Tw3jVJ4+Zrv2Qrqaa/ehWW7eikvaE0fUNVc0h1a5/RvGSbv61hX7i5cdRbqfu5o775PJ773/D0+RD0Hatm2H4Kc/rvxp0eeLiYoUEJ98umDtuvUmN54+c/alS5eoDn3Vyt78RVu6u/QyiIhh7DyvP7VBPXCFMks5JcYrx9RJJ1VNJWs+Md3YaHX2u2D/1eZb+9zpdE5+7/2PP55PVpJAMhukoqIiwU91XZ86bfrni78kKhWxjZs2z5z1ofnt8/LyJk+ZSnLoNUf0wYu1LcdIdubqvNUYudU595Bmp7iEzCjQBx50rr+sGv7WHh4Z7LJTe/WKfVa+03xJp7w/7cslSwmviALKbJA4995Gnjlz9ukzZypdJHqfLljo60vWrFn3xx8HKnncPWeMqWuNYtfrSkpOjX1xVJu6v7JJOlSojz6i5tkDeNYahrGgwDn2qtNpIqdHjhxd9vW3gSsMObNBMtOX4HA4x4+fWFxcXOlSUTqUeXjfvj98fZVhGJPenqyqbsa1TNp3lr37WxV9nq46rX1+1P8sbc3VhmeqRY7Al9UwVlud7+Q5vR5p/qcLfBqYueHMBkky11O4N2PfE0OH5eX9gy4NF3+5xL+3JPPw4Y2bNvt30PQT+qsrtHyb76/0qX/sbwabe1h7c69q8z3423P1Vw87bd7P7Qok6a9/PjGM5UXOjwucgk327f9jzZp1PpfnhvK7W9KjAwcOfjB95sQJ48j37Ae73b5xo59hYIytXbuue1qqr6+yOdj0DYZmvobgLFhhLWtJidGsRpgky6zAwc4Usn2XjMvFzOyngGGsPqMZjI1v68N7mlmov3ZEtWuG2TxwHimzlAgl2aLVDpI4Z/mqnqXxQ3Yjy6GXDtSaKer8ArWNReoc6r6oixZ9YaYqj46OatSwUXCI//MBGiYn+/1aF/RBYoyt+HFlWlq3rnd0CcTOffL98hWFhYWCDTjngvdsy5b0kpKSkJAQnw762Q6zdVFYMOvRiN/SQGoeL0VUOB9UnWUXGrvOGz8e07OKTMVp9VktMZINaGTqbU3P1ccedtpUw0wdGGfhPeLk2yOkthHy9VkL5UZadcZOOfRtNn1Nkba/RPfaQanr+it56mcKb2BxbRMVFBZu2Zoufvmtt3R++OEHO3e6mWpWTeUFJEi6rr82ZtzMGdPat2sXiP2bZLVa5348T7BBclLSnXd2n+u5gzW/oGDd+g13977L/EE3/mms2O99s+hQ9kBrqXdTOSbU4zYKZ4nRUmK01K8x33PR+OyQ9sdlb5/TBvv4iHaiiL3UUgkTvrfpV/VXMp0OzXuKwhX+n5ryIzWUUM/XAZyx5CCeHMQfjVG22bR5eVpGsZdWZoFTm5TnnFs92OX4hzMPexqxLPXsyOGDBw30UugqF6jR8aIi6/ARz505k02yN3uFGRVmbN+x09PkvVK9e/f6V5+7xZd/PjXWC0vY9A26197jmDA2o6/8P21EKSpL5qxjgjS9m3J7XRPvl8F+O6tNPiA6jw8W6GMOOx2q91ouOVxZ1twyJEGUIhe3hMmf1g4aFGvx2lzcbdf3lri2gE8Lz5nw8LBHH3nEbFGqUACnmRTbise9PrHirKIqIx6BlSQpNbVr/fr1br21s2Cz7Tt25uaK0ljWTwc1m93LNnVj2JQ+St0Yn7sUFM7G36z8TzPZzOylNee0L0+6v0rbflUfsd9Z7PCeokYR8uyGSo0gf06S4XGWQTHesqTrSyqM0uYLJzE0bdIkOPifMRm+vMBOfty7N2Pxl18F9BCeOJ3OTZu2CDZo0+amxo0aMcaGDB4k2MxqtX7z7Xdmjmgw9sshL9vUjmaz/i0nVTOzPzeCFfZ0K/mxZt5ngraM4/0buNksp1gfe8hZbGIoJy5EmZosVw/yc54jZ2xErGVAtIUJRyA32LSz5TsMxe266tWr+1eeQAv4LOK5H8/fmr4t0EepaOfO3eJuhkEDB5T+T9s2NzVsKOq9+WrpNzYTg2OZ59g5Ybd/sIW9nCZX7FTw1cDmclo90RvXqhp/s7WlwmX8tRS9fFC1mqiLGkfwhU15reDKnh4jYy09w0XXapquf1RYrhUq7qTUTXYMVrmAB6m4uHjks6M3bRZVDoGw/IcVgp82a9b0705Fzvl99/YVbHz58uW1Jq6U1hwRdXgrCpvQi7dI8Lob7xTOxnZQHm8uu72Z4p4GfM7NlhoVrr62X9EH7HIey/d+IjaJlGc3sST41aJzwRkbExdU3SKqQn8p1rPLVEoREaI7LLOzcypfqkCoivtaVFV9fcKbRVZrFRyrlNVm27xlq2CDtPKjQ2mp3bx0OZiY8LpX2LFyWxJrX4/s9heFsyHN5f80k1363G6K5y+0tFQM2FmbMfaA02qiRVctRH6/kRJrIStqJGePRAkrJU3bWWZqUrW4OMHGR48evXLlClXZCJkNUkiwx7GU2NgYi8XLrZtXr1595933qmzSx7Jl34hnKqWldi37Zd26dbp0uV2w/Y4dO8UNxexcdl7QrpPYv1Lo78Ee0ETuUaYf76bq8httlYr3emfb9Jf3O8206JpFyQuaKwmuPdKV9a8wHmkRZWlfmdlJDRIbCLbUNG3ylGk2mx9zRgLL7DhSaJjHntr69erd868+b739rngPK1f+bBjGhPHjgoICe8N0fkHBJ5+KZqm2aplS2s1Q1ujnRqanb/M0ua64uHj1r789cH8/T/vcdFzU610/lrWuQ1/5K5yNaafUj9Q+O6r3acBHt3KTop1X9Nf+UG0O3et4UZNIeVZTS3QA3pxqMh8ULs3MlzxdAJUNUtMmjWNjYwU9patX/7pt2/Y+fXp3veP2OrXrKIrHdqPEeUR4RHh4WCBu03RBMyDbv//9x0+cWPLVMvFmP/20qknjxgMf/w/JQT1JT98mrj3S3M36SUpKbN2q5Z69GZ5etWbtekGQDp4Xfd63q09zk29FCmeDmspJkaxLLbliis4VG2P3qzYTLbrYEPm9JnIgUlSqb7hlTr7HBQNynFqxwUKvlz84OLhXrzu/Ep5LBQUFS5YsXbJkKZMk4SQKg3NeLS6uWfNmd/XqmZraNTwsrHK/h0dkSX3h+VHdut7hdbO5c+cdOXqU6qBurRNez3DO01K7uf1R9+5pghf+vmdPTs45tz8yGDslbLc3iQ/s2jrdartLkc14OUMtMnEXbeMoeUGKXDtA65VcFydLiZ57L1SJXy5z5/CAxx41Oy3LKF02xtM/puv6pcuXN2/eMmbs+LTuPZ8d9fzOXbtpfqXyyP52iqK8PemNik0mF7bi4tHPv3Tu3Hmq47q4ejV3g3CWau/evRI9tMLv7n1XUJDHwT6H3TFj1my3P7LZWa7nnhSJs8RqVb1+4I7L+uPbnMfyvPfRNY6UZzW31Apkiko1UUSfJpfK3JNbp07tB/s/QF6AkhL7hg2bnhw67OFHBpAPyVD++cLDwydOGCfLXoYLs7PPPjl0mNWXTjzzvRSbt2wVzKWQJGnwwMc9/TQuLrZdu7aCnf/229qLF93cgm5XmWB1A0NnsYFqULh3JF8fm2FqvCguVH6vmUzYRydQTfF8HWEY1vKRHzRoQGiouQlUvsvMzHxmxCjzSw+YQfw5lJLSYsp774Z4m9l+Jjv7nclTzO9WM31Pgrhd1zKlRSPhymE9uotumtA0bf2GDRW/79C8TIURjqMQO2vVR+zSbCZSFGGR5rWSq6AuKhXMRUVy6eSJi40d9dyIwBVG17UxY18XDzb6hP6P2D2t2/hxY7zeCPjjj/TrpZw6lSWegX/ffaKBV8ZYr149o6KiBBt8v9zNn17hXsbjK7tykC/qhPNxrXikiak9RU5j4p/apcAsRVSRuMuj4on40IP935/ybmRkZIDKU1xc/PqEN732kJlEEKSK9/P0ubv3nT26e33hzFlz9u/3+SZwgUWffyG4OZxz3q1bV/EeoiIjxbMcMjMPZ2efdflmsIVJns8SibMC0fQxel1qymNaKeJJbqX252pjjqomZoETyBesTCRJYe7OxDt7dJ/xwdSA3nQ0a/aHhYWihX1MIgiS0925+/JLz4sbUaXzSp8ZOero0T8rX4bSMd+fV60WbNDmppviq3mfLvroIw+J37l1611bd6EKC/f8CsNg5wqqeoZYl5p80k1yuIl6aX+eNvUE4epbHp0WHUSK8RD79u3bfvrJx11uv83rtbd/rFbrkq+WVn4/gWofx8fHf7bgk5YtU8Sb5efnj3r+xbw8gnWcf171i3g2w333mVo9PCEhITVVVHF9v/wHl0pYkVmiYFKywTKFo0yVt+m8frrCLbTdEuTp7ZUIE1n67rxz+CHnZROXVX6z6uyI5/1zQ0vwPK7aMqXF7FnTv1m25Ikhg5OTkwjXGS715ZKvfOr6ciuAF5oREeFvvfG6IuiruS47++zUaTMqf7g1a0XdDBaLxfyt7+J1Gk6cOLk3Y5/LN5tWF729Ga6NQUo7LugTdmuv7VatFRYUSYnhL7dQvK/HYLA9udr4YwGslzbYnIJZPfGKHOntTExOThrxzLDvvln6xaKFQ58c0rnTzfHx1cLCwwT/TFZiubl5v/62xsdfyJXZmQ2xfi3tnZSUNHLE8GkfeMnJyp9+9toOFLt48aJ4Gbq+9/Qxvzr5LZ07hYWF2mwe67f58z9t/+Gsst/pWF/6NsPwNMp+9CK7WMhqBOCyeU229vZezamxU/nGU1udb3dQ6keUi033BG4w5d1Mp9XbldDuPG3aKWl0okL+4aoy9rlNZ57XxmhseoKNJEktW6aUtnR0XXc6nYJuLafTmZNzLmPf/hU/rhRfja/8adW/77vXbCHcMb0cl4krV7ceH/DY6FHPiic76bo+7YMZ4tvCxVb+tErQzRAaGvrfYU+b31tkZOSdPXoINkjftv3AwYNlv9OqjhTnebBI09g3+2geqFHWb2f0t37X/l689FSB/uwOZ1aR6/naI4FPa2sJ9TpYZLBl59SRR9RcMys4+uIXq3pUuBjszR6WExLjnAcHBwd5Fh4e3rhxo/4P9Fv46bw+d/cW7CojY19BgWhamffCVObFJj0+4LG+dE83cks8uNaxY4f4eN/uSu0uHFC6PmBVrstB4ax1HdH2qw5dq5QIpZ/T392ruXSsX7QZr/2uFVVo47WO4S83M9XG25WrTjhJ2cbTGVtYoArGByRF6RjgEWFZlgcPGiDYQNO0S5cuVuYQVTQYN/q5kQ3q1w/Qzo8e/TMz87BgA/Ewq1sdO3SoHh8v2GDt2vUuXQ6dGojOBruTTVitFXlb0cGkX0/r43ZqTnettaxCfeg2Z8Xlu3olyBNTFO/1EmPbcrUZp/1YMNK97wvVE8I1XBvJrHFwwEesExMTBU+RMwyjkg+8IAiSmWkH0dFR0z94v1o10T1b/jEMY+q06YIyRISH9xDORnUrLCx0+HBRa/BUVpZLl8NtyTxGOBXo2CU2aY1m938V5L+sPq2/87vq9DwrKatQH7lLzbjqevr2rClPaW0JFc55Y9frpSXnteePqfmVLuoqq/Z+rlNQHXGJvxwdmI7t8hRFqV5d9MnocIgWf/WKYkDW3Lh9cnLSxx/N8XWxxVJOp8dfMivr9PYdOwWv7XxLZ/+edfuvPnfHxor6J1zak8EWltrEyz53n2ZjV2kllXjLNmVrk393bdFVdLlYn3RQq1gTtI/hLzQxMVZrsK256oSsSrXxfrNqYy457MKytg7m7UICsrhiReLREV65bvUqnZXcqFGjF18YRbvPisOjLrqnub9pwiuLxSK+MWT9+g0uPRx3t5C93rWYcZaN/UXL9f0WT91gn2dqE3bqZmYitIjlc2+2uL1x4e4E+dWmSrDXeoldy9LEU84Cv+ql1VZtwmWHl0WMJenhiCqahpibl+d2wvHfRYmIiKjM/qt6ev8D9/d75H8eotqbruvLhU/Xq1GjRmo3P4N0fQxX1CWak3Puu+9/KPud+nFsVKr35w1knDWe/FZdul83OXVIM9ieC/qojer8PzTNxFP0UmvLH3SwxHmebNE3QZ6SooSYaOP9fFm995B94QWtxHTdtNOmDT3nfPWCo9hbvdkuRO4hXg+WznffLRe0aySJJSTUrMz+qzpIjLFRz41MSWlBsqvjx09kZWUJNnj4of6hof40Jku1btWyZo0agg0WfLbI5fIsrQnvlOR9z3k2Nn+7PuQ7dd0xL03jrALjhQ3q6I16xgVT53K32vJbbZUIbxXjzbHys8mm5uMVOfU5Oc5Hjzp+zXXTVixXVIc+7oJzWI7jd6vouugvnD8TWTUPlWYbNm7+8KO5gg1q164VGxtbmUNU0edBWUFBQR/Omfnk0GGVn2Un7vWOCA+/v999ldk/57xbatelS7/2tEHO2Zzf9+y9uWOHst984hZ5X7Zm5vliuVb29kZ9zi69ZQ3WrAavEc6igpnMWbHKLhWzE3nGoSvGyQLj2pWKuce9tIzjr7Yy+57eW0vWGJt1Ui3xusiyYZwu1sacNmItaqcI3jBMTpD1WIvEGbPqxiWNnVHZLpv2p103mGGmqJIkjYhW2ni+Otqavq3yqwXZ7Y6s06f37s3IPJSpCR9v0a3rHZVc1+EGBIkxFhMd/cG0KY/9Z2Burv+z7FRVXbFipWCDO3v2qPyz1v99b99ly74WfLx+v3yFS5DqxbLn06R3fjVM9cIY12qnLafY5tM6k5gh/fXAc+P62kMeH8fvhpRWh7/cWgk3ve4CZ+yBWnKdEOmlww5TDxnT9asOtipXZ3lq6XoIEjeuhax06rv5okrS4GjLwEhRQRcuXBSge8IrCg4OfnzAYxW/X6yzC5pukVgtxXvIzKZQ5sQXhXXr1HnxhdGV2cPWrdvO5oiWC/S7m6GsZs2atmjeXLDBpk2bKza+uzTiI7qafDhbeYafz2zuXld+o70PKfrbLbF8eKKpNp4r4/oDkXxfYq11iPJ0VGBXkvLJbbd2rlnT9QJpU7HW50LJ/Zec95x3DL1kz/HWf2k6SJ77+jXdz8kvve/q9dTQJ/w63Ziu6+I1t6Kiojq0b+9fwcqSJGnwYNFDRIqKitz2v/dO4UNulQK1elB5N8Xzl1r7/0n3YC1ldKKpfrzKkqSWoZZ3YqvyjmHvHnnkYZfvLClSX7zqyHNqhqoyXdtTrD580fG78AG7FAOyHldZ8oJz/t9hTw0Z4s+zbvZmZOzbL3oO0V139aS66T8ttVvjxqJFXZa7u22WMda/LX8+TQoJ5MMTFFl6uLH8fmd/6qK/ccYeqiXPaG6Jplim2DNpQJRlQfWgWlWQWNMeuP/fHTuUa5nvKdGm5Dmd5dvlRar21lVR+/cG9Nq5+O/TTzVp4m0gswKXqW4V+fHISk845+K9bdmaXlTk/oaWns357P68uujudf9JXHq1rTw8RSYZ0mwXxWc0U2JCAlNbcD44Oui56H9WXZSclDR69HMu39ytMrcT1bNUPcfzxKkbHyRZlt+cOF68UkLNmuX6oDVNE4/D1qldu22bNnRlZJ6WwitVUlIiuMuyXqw0vZ/c2USfuE+SovnkznJP4WMpfNUigi9NUfpdu7imqzQkqWmIMrNa0PDoG9Oz5UmnTh0XLphXcclIm+c+zDzPP7rxQSq9oP/8s09d0vK32NjYO7qUuydv167dntZqLPXsyOG0j6Nq2rSJeOxrwcLPBPf5xkewN+6WZ/bjdzRilR06kaT6UfyNzsrC7krnBPq3L8YivdJAmdfckhonu1mN3yeSVD9IfqVa0KKE4NtDK65gecNYgiyDBg6YM2uG22msDWXmdpp8mMQaeq5Q/xFBuj45t8HY1151+6OXXhwdGVlu+oZ4+Kh69fgeJpZe8ZW4D9BqtW3eLHr+xbXPi5rSuDvl+Q/yLg0lyY8/vCTViuQvtucLeijd6hBWGW60iuCTG1oWNVNaRSmSH3NKOY+xyK/HB31XJ+TBSOUf1EPHWNu2bb5d9tVzz47w9OSH1FA5xl1guodbBM//NFvbCvo4qe4Cu+OO26dNnfL998sPHzlSUFAYGRnZvl3bhx7q3778oo12u33Dhk2C/aSmdgvEQhlpqamz53wkeAT62nXr77mnj9f91I2RXr9TPn7F2JVt7DunH7zIrILJbJzJEmsQI7WuIbWrIXWuxYOq8CKjYRif14Qft+npRfKWfO3PEsP6V2e3u/ecc86MOiG8cxjvFMo7hHq/e7zKSJJUt26dDu3bde16R5fbbxMvfxDBpY/iLK/kGqcc/9u5L0mdwizPRIn+9JLJRUwPHDx0/rz7dYZDQ0Nvu/UWMzsxyTAMp9NpsVjc9ow7HI6zZ0XDR/Hx8S41GJXTZ84IuihlRa5fr56v+yxR2YmrxpHLxpErxukCdtFqaAaLCmH1YqTkGKNxHG9WTaoe9o9oFjl043CxnmE1TjiMLCfLLtF0bkQpPDlUrivrbcN4SiiPV2iqyvmfLDh58lQldyJJUvXq1ZOTE1NatEhKSvRpoMWqG/MK1dVWNUaWhkRaeoR5+QAzGyQAEPjH1L4A/y9DkAAIIEgABBAkAAIIEgABBAmAAIIEQABBAiCAIAEQQJAACCBIAAQQJAACCBIAAQQJgACCBEAAQQIggCABEECQAAggSAAEECQAAggSAAEECYAAggRAAEECIIAgARBAkAAIIEgABBAkAAIIEgABBAmAAIIEQABBAiCAIAEQQJAACCBIAAQQJAACCBIAAQQJgACCBEAAQQIggCABEECQAAggSAAEECQAAggSAAEECYAAggRAAEECIIAgARBAkAAIIEgABBAkAAIIEgABBAmAAIIEQABBAiCAIAEQQJAACCBIAAQQJAACCBIAAQQJgACCBEAAQQIggCABEECQAAggSAAEECQAAggSAAEECYAAggRAAEECIIAgARBAkAAIIEgABBAkAAIIEgABBAmAAIIEQABBAiCAIAEQQJAACCBIAAQQJAACCBIAAQQJgACCBEAAQQIggCABEECQAAggSAAEECQAAggSAAEECYAAggRAAEECIIAgARBAkAAIIEgABBAkAAIIEgABBAmAAIIEQABBAiCAIAEQQJAACCBIAAQQJAACCBIAAQQJgACCBEAAQQIggCABEECQAAggSAAEECQAAggSAAEECYAAggRAAEECIPB/AwAA//+86x+E8WpAVwAAAABJRU5ErkJggg==;" parent="1" vertex="1">
          <mxGeometry x="1045.95" y="2100" width="63.5" height="63.5" as="geometry" />
        </mxCell>
        <mxCell id="MKCzWIRwI4Zgw65z_sEB-195" value="" style="sketch=0;outlineConnect=0;fontColor=#232F3E;gradientColor=none;fillColor=#3F8624;strokeColor=none;dashed=0;verticalLabelPosition=bottom;verticalAlign=top;align=center;html=1;fontSize=12;fontStyle=0;aspect=fixed;pointerEvents=1;shape=mxgraph.aws4.file_system;" parent="1" vertex="1">
          <mxGeometry x="959.8799999999999" y="2184.5" width="44.88" height="42" as="geometry" />
        </mxCell>
        <mxCell id="MKCzWIRwI4Zgw65z_sEB-196" value="Fastdfs" style="text;html=1;align=center;verticalAlign=middle;resizable=0;points=[];autosize=1;strokeColor=none;fillColor=none;fontSize=15;" parent="1" vertex="1">
          <mxGeometry x="953.1999999999999" y="2219.58" width="70" height="30" as="geometry" />
        </mxCell>
        <mxCell id="MKCzWIRwI4Zgw65z_sEB-198" value="" style="sketch=0;aspect=fixed;html=1;points=[];align=center;image;fontSize=12;image=img/lib/mscae/Cache_Redis_Product.svg;dashed=1;" parent="1" vertex="1">
          <mxGeometry x="938.27" y="2270" width="59.52" height="50" as="geometry" />
        </mxCell>
        <mxCell id="MKCzWIRwI4Zgw65z_sEB-199" value="" style="sketch=0;aspect=fixed;html=1;points=[];align=center;image;fontSize=12;image=img/lib/mscae/Cache_Redis_Product.svg;dashed=1;" parent="1" vertex="1">
          <mxGeometry x="1014.6999999999999" y="2270" width="59.52" height="50" as="geometry" />
        </mxCell>
        <mxCell id="LkItw__8LMoa1xNLQE_U-2" value="" style="ellipse;whiteSpace=wrap;html=1;" vertex="1" parent="1">
          <mxGeometry x="77.41" y="140" width="75" height="60" as="geometry" />
        </mxCell>
        <mxCell id="LkItw__8LMoa1xNLQE_U-3" value="用户" style="whiteSpace=wrap;html=1;aspect=fixed;" vertex="1" parent="1">
          <mxGeometry x="72.41" y="200" width="80" height="80" as="geometry" />
        </mxCell>
        <mxCell id="LkItw__8LMoa1xNLQE_U-4" value="" style="ellipse;whiteSpace=wrap;html=1;fillColor=#fff2cc;strokeColor=#d6b656;container=0;" vertex="1" parent="1">
          <mxGeometry x="366" y="559.5" width="80" height="50" as="geometry" />
        </mxCell>
        <mxCell id="LkItw__8LMoa1xNLQE_U-5" value="生日" style="text;strokeColor=none;fillColor=none;html=1;fontSize=24;fontStyle=1;verticalAlign=middle;align=center;" vertex="1" parent="1">
          <mxGeometry x="362" y="609.5" width="84" height="30" as="geometry" />
        </mxCell>
        <mxCell id="LkItw__8LMoa1xNLQE_U-6" value="&amp;lt;&amp;lt;include&amp;gt;&amp;gt;" style="text;html=1;strokeColor=none;fillColor=none;align=center;verticalAlign=middle;whiteSpace=wrap;rounded=0;fontSize=15;" vertex="1" parent="1">
          <mxGeometry x="446" y="555" width="60" height="30" as="geometry" />
        </mxCell>
        <mxCell id="LkItw__8LMoa1xNLQE_U-7" style="edgeStyle=none;rounded=0;orthogonalLoop=1;jettySize=auto;html=1;dashed=1;fontSize=15;startArrow=none;exitX=0.5;exitY=0;exitDx=0;exitDy=0;" edge="1" parent="1" source="LkItw__8LMoa1xNLQE_U-6">
          <mxGeometry relative="1" as="geometry">
            <mxPoint x="486" y="480" as="sourcePoint" />
            <mxPoint x="608" y="366" as="targetPoint" />
          </mxGeometry>
        </mxCell>
        <mxCell id="LkItw__8LMoa1xNLQE_U-8" style="edgeStyle=none;rounded=0;orthogonalLoop=1;jettySize=auto;html=1;entryX=0.058;entryY=0.35;entryDx=0;entryDy=0;fontSize=15;entryPerimeter=0;" edge="1" parent="1" target="LkItw__8LMoa1xNLQE_U-4">
          <mxGeometry relative="1" as="geometry">
            <mxPoint x="145.56521739130437" y="280" as="sourcePoint" />
            <mxPoint x="410" y="490" as="targetPoint" />
          </mxGeometry>
        </mxCell>
        <mxCell id="LkItw__8LMoa1xNLQE_U-9" value="" style="ellipse;whiteSpace=wrap;html=1;" vertex="1" parent="1">
          <mxGeometry x="89.41" y="750" width="75" height="60" as="geometry" />
        </mxCell>
        <mxCell id="LkItw__8LMoa1xNLQE_U-17" style="rounded=0;orthogonalLoop=1;jettySize=auto;html=1;exitX=1;exitY=0.5;exitDx=0;exitDy=0;" edge="1" parent="1" source="LkItw__8LMoa1xNLQE_U-10">
          <mxGeometry relative="1" as="geometry">
            <mxPoint x="330" y="830" as="targetPoint" />
          </mxGeometry>
        </mxCell>
        <mxCell id="LkItw__8LMoa1xNLQE_U-10" value="用户" style="whiteSpace=wrap;html=1;aspect=fixed;" vertex="1" parent="1">
          <mxGeometry x="84.41" y="810" width="80" height="80" as="geometry" />
        </mxCell>
        <mxCell id="LkItw__8LMoa1xNLQE_U-15" style="rounded=0;orthogonalLoop=1;jettySize=auto;html=1;exitX=0.5;exitY=1;exitDx=0;exitDy=0;entryX=0.5;entryY=0;entryDx=0;entryDy=0;" edge="1" parent="1" source="LkItw__8LMoa1xNLQE_U-12" target="LkItw__8LMoa1xNLQE_U-9">
          <mxGeometry relative="1" as="geometry" />
        </mxCell>
        <mxCell id="LkItw__8LMoa1xNLQE_U-12" value="" style="ellipse;whiteSpace=wrap;html=1;fillColor=#fff2cc;strokeColor=#d6b656;container=0;" vertex="1" parent="1">
          <mxGeometry x="74.91000000000003" y="585" width="80" height="50" as="geometry" />
        </mxCell>
        <mxCell id="LkItw__8LMoa1xNLQE_U-13" value="用户登录" style="text;html=1;strokeColor=none;fillColor=none;align=center;verticalAlign=middle;whiteSpace=wrap;rounded=0;fontSize=15;container=0;" vertex="1" parent="1">
          <mxGeometry x="71.41000000000003" y="650" width="80" height="30" as="geometry" />
        </mxCell>
        <mxCell id="LkItw__8LMoa1xNLQE_U-14" value="" style="endArrow=classic;html=1;rounded=0;" edge="1" parent="1">
          <mxGeometry width="50" height="50" relative="1" as="geometry">
            <mxPoint x="380" y="640" as="sourcePoint" />
            <mxPoint x="430" y="590" as="targetPoint" />
          </mxGeometry>
        </mxCell>
        <mxCell id="LkItw__8LMoa1xNLQE_U-18" value="" style="ellipse;whiteSpace=wrap;html=1;fillColor=#fff2cc;strokeColor=#d6b656;container=0;" vertex="1" parent="1">
          <mxGeometry x="596.71" y="660" width="80" height="50" as="geometry" />
        </mxCell>
        <mxCell id="LkItw__8LMoa1xNLQE_U-19" value="农产品名称" style="text;html=1;strokeColor=none;fillColor=none;align=center;verticalAlign=middle;whiteSpace=wrap;rounded=0;fontSize=15;container=0;" vertex="1" parent="1">
          <mxGeometry x="596.71" y="720" width="80" height="30" as="geometry" />
        </mxCell>
        <mxCell id="LkItw__8LMoa1xNLQE_U-20" value="" style="ellipse;whiteSpace=wrap;html=1;fillColor=#fff2cc;strokeColor=#d6b656;container=0;" vertex="1" parent="1">
          <mxGeometry x="596.71" y="770" width="80" height="50" as="geometry" />
        </mxCell>
        <mxCell id="LkItw__8LMoa1xNLQE_U-21" value="发送日期" style="text;html=1;strokeColor=none;fillColor=none;align=center;verticalAlign=middle;whiteSpace=wrap;rounded=0;fontSize=15;container=0;" vertex="1" parent="1">
          <mxGeometry x="596.7099999999999" y="820" width="80" height="30" as="geometry" />
        </mxCell>
        <mxCell id="LkItw__8LMoa1xNLQE_U-22" value="" style="ellipse;whiteSpace=wrap;html=1;fillColor=#fff2cc;strokeColor=#d6b656;container=0;" vertex="1" parent="1">
          <mxGeometry x="598.8599999999999" y="850" width="80" height="50" as="geometry" />
        </mxCell>
        <mxCell id="LkItw__8LMoa1xNLQE_U-23" value="最高价格" style="text;html=1;strokeColor=none;fillColor=none;align=center;verticalAlign=middle;whiteSpace=wrap;rounded=0;fontSize=15;container=0;" vertex="1" parent="1">
          <mxGeometry x="598.8599999999999" y="900" width="80" height="30" as="geometry" />
        </mxCell>
        <mxCell id="LkItw__8LMoa1xNLQE_U-24" value="" style="ellipse;whiteSpace=wrap;html=1;fillColor=#fff2cc;strokeColor=#d6b656;container=0;" vertex="1" parent="1">
          <mxGeometry x="598.86" y="940" width="80" height="50" as="geometry" />
        </mxCell>
        <mxCell id="LkItw__8LMoa1xNLQE_U-25" value="最低价格" style="text;html=1;strokeColor=none;fillColor=none;align=center;verticalAlign=middle;whiteSpace=wrap;rounded=0;fontSize=15;container=0;" vertex="1" parent="1">
          <mxGeometry x="598.86" y="1000" width="80" height="30" as="geometry" />
        </mxCell>
        <mxCell id="LkItw__8LMoa1xNLQE_U-26" value="" style="ellipse;whiteSpace=wrap;html=1;fillColor=#fff2cc;strokeColor=#d6b656;container=0;" vertex="1" parent="1">
          <mxGeometry x="601.1800000000001" y="1030" width="80" height="50" as="geometry" />
        </mxCell>
        <mxCell id="LkItw__8LMoa1xNLQE_U-27" value="平均价格" style="text;html=1;strokeColor=none;fillColor=none;align=center;verticalAlign=middle;whiteSpace=wrap;rounded=0;fontSize=15;container=0;" vertex="1" parent="1">
          <mxGeometry x="604.68" y="1090" width="80" height="30" as="geometry" />
        </mxCell>
        <mxCell id="LkItw__8LMoa1xNLQE_U-28" value="" style="endArrow=none;html=1;rounded=0;exitX=0.25;exitY=1;exitDx=0;exitDy=0;" edge="1" parent="1" source="LkItw__8LMoa1xNLQE_U-10">
          <mxGeometry width="50" height="50" relative="1" as="geometry">
            <mxPoint x="380" y="840" as="sourcePoint" />
            <mxPoint x="90" y="950" as="targetPoint" />
          </mxGeometry>
        </mxCell>
        <mxCell id="LkItw__8LMoa1xNLQE_U-29" value="" style="endArrow=none;html=1;rounded=0;exitX=0.75;exitY=1;exitDx=0;exitDy=0;" edge="1" parent="1" source="LkItw__8LMoa1xNLQE_U-10">
          <mxGeometry width="50" height="50" relative="1" as="geometry">
            <mxPoint x="380" y="840" as="sourcePoint" />
            <mxPoint x="150" y="950" as="targetPoint" />
          </mxGeometry>
        </mxCell>
        <mxCell id="LkItw__8LMoa1xNLQE_U-30" value="" style="endArrow=classic;html=1;rounded=0;entryX=0;entryY=0.5;entryDx=0;entryDy=0;exitX=0.942;exitY=0.273;exitDx=0;exitDy=0;exitPerimeter=0;endFill=1;" edge="1" parent="1" source="MKCzWIRwI4Zgw65z_sEB-80" target="LkItw__8LMoa1xNLQE_U-18">
          <mxGeometry width="50" height="50" relative="1" as="geometry">
            <mxPoint x="380" y="840" as="sourcePoint" />
            <mxPoint x="430" y="790" as="targetPoint" />
          </mxGeometry>
        </mxCell>
        <mxCell id="LkItw__8LMoa1xNLQE_U-31" value="" style="endArrow=classic;html=1;rounded=0;entryX=0;entryY=0.5;entryDx=0;entryDy=0;exitX=1;exitY=0.5;exitDx=0;exitDy=0;endFill=1;" edge="1" parent="1" source="MKCzWIRwI4Zgw65z_sEB-80" target="LkItw__8LMoa1xNLQE_U-20">
          <mxGeometry width="50" height="50" relative="1" as="geometry">
            <mxPoint x="420" y="830" as="sourcePoint" />
            <mxPoint x="430" y="790" as="targetPoint" />
          </mxGeometry>
        </mxCell>
        <mxCell id="LkItw__8LMoa1xNLQE_U-32" value="" style="endArrow=classic;html=1;rounded=0;entryX=0;entryY=0.5;entryDx=0;entryDy=0;endFill=1;" edge="1" parent="1" target="LkItw__8LMoa1xNLQE_U-22">
          <mxGeometry width="50" height="50" relative="1" as="geometry">
            <mxPoint x="380" y="840" as="sourcePoint" />
            <mxPoint x="430" y="790" as="targetPoint" />
          </mxGeometry>
        </mxCell>
        <mxCell id="LkItw__8LMoa1xNLQE_U-33" value="" style="endArrow=classic;html=1;rounded=0;entryX=0;entryY=0.5;entryDx=0;entryDy=0;exitX=1;exitY=0.5;exitDx=0;exitDy=0;endFill=1;" edge="1" parent="1" source="MKCzWIRwI4Zgw65z_sEB-80" target="LkItw__8LMoa1xNLQE_U-24">
          <mxGeometry width="50" height="50" relative="1" as="geometry">
            <mxPoint x="410" y="840" as="sourcePoint" />
            <mxPoint x="609" y="885" as="targetPoint" />
          </mxGeometry>
        </mxCell>
        <mxCell id="LkItw__8LMoa1xNLQE_U-34" value="" style="endArrow=classic;html=1;rounded=0;entryX=0;entryY=0.5;entryDx=0;entryDy=0;exitX=1;exitY=1;exitDx=0;exitDy=0;endFill=1;" edge="1" parent="1" source="MKCzWIRwI4Zgw65z_sEB-80" target="LkItw__8LMoa1xNLQE_U-26">
          <mxGeometry width="50" height="50" relative="1" as="geometry">
            <mxPoint x="400" y="860" as="sourcePoint" />
            <mxPoint x="619" y="895" as="targetPoint" />
          </mxGeometry>
        </mxCell>
        <mxCell id="LkItw__8LMoa1xNLQE_U-35" value="" style="endArrow=none;html=1;rounded=0;exitX=0.25;exitY=1;exitDx=0;exitDy=0;" edge="1" parent="1" source="LkItw__8LMoa1xNLQE_U-3">
          <mxGeometry width="50" height="50" relative="1" as="geometry">
            <mxPoint x="320" y="330" as="sourcePoint" />
            <mxPoint x="80" y="350" as="targetPoint" />
          </mxGeometry>
        </mxCell>
        <mxCell id="LkItw__8LMoa1xNLQE_U-36" value="" style="endArrow=none;html=1;rounded=0;exitX=0.75;exitY=1;exitDx=0;exitDy=0;" edge="1" parent="1" source="LkItw__8LMoa1xNLQE_U-3">
          <mxGeometry width="50" height="50" relative="1" as="geometry">
            <mxPoint x="320" y="330" as="sourcePoint" />
            <mxPoint x="150" y="350" as="targetPoint" />
          </mxGeometry>
        </mxCell>
      </root>
    </mxGraphModel>
  </diagram>
</mxfile>
